<?xml version="1.0" encoding="UTF-8" standalone="no"?>
<svg
   xmlns:dc="http://purl.org/dc/elements/1.1/"
   xmlns:cc="http://creativecommons.org/ns#"
   xmlns:rdf="http://www.w3.org/1999/02/22-rdf-syntax-ns#"
   xmlns:svg="http://www.w3.org/2000/svg"
   xmlns="http://www.w3.org/2000/svg"
   xmlns:sodipodi="http://sodipodi.sourceforge.net/DTD/sodipodi-0.dtd"
   xmlns:inkscape="http://www.inkscape.org/namespaces/inkscape"
   width="75"
   height="75"
   viewBox="0 0 19.843749 19.84375"
   version="1.1"
   id="svg2162"
   inkscape:version="1.0.2 (e86c8708, 2021-01-15)"
   sodipodi:docname="house_icon_plain.svg">
  <defs
     id="defs2156" />
  <sodipodi:namedview
     id="base"
     pagecolor="#ffffff"
     bordercolor="#666666"
     borderopacity="1.0"
     inkscape:pageopacity="0.0"
     inkscape:pageshadow="2"
     inkscape:zoom="5.6"
     inkscape:cx="12.98699"
     inkscape:cy="23.244815"
     inkscape:document-units="mm"
     inkscape:current-layer="layer1"
     inkscape:document-rotation="0"
     showgrid="false"
     inkscape:window-width="1332"
     inkscape:window-height="872"
     inkscape:window-x="1514"
     inkscape:window-y="73"
     inkscape:window-maximized="0"
     units="px" />
  <metadata
     id="metadata2159">
    <rdf:RDF>
      <cc:Work
         rdf:about="">
        <dc:format>image/svg+xml</dc:format>
        <dc:type
           rdf:resource="http://purl.org/dc/dcmitype/StillImage" />
        <dc:title></dc:title>
      </cc:Work>
    </rdf:RDF>
  </metadata>
  <g
     inkscape:label="Layer 1"
     inkscape:groupmode="layer"
     id="layer1">
    <path
       id="rect2743"
       style="fill:#555555;fill-opacity:1;stroke:#555555;stroke-width:1.15275592;stroke-linecap:round;stroke-linejoin:round;stroke-miterlimit:4;stroke-dasharray:none;stroke-opacity:1"
       d="m 37.410156,15.283203 -18.0625,18.244141 h 0.04102 c -0.02362,0 -0.04102,0.01738 -0.04102,0.04102 v 25.566407 c -0.18578,0.495413 7.73953,2.21281 11.91016,2.04297 -9.17e-4,-0.02452 -0.0078,-0.04753 -0.0078,-0.07227 V 47.822266 c 0,-1.069086 0.860602,-1.929688 1.929688,-1.929688 h 8.640624 c 1.069086,0 1.929688,0.860602 1.929688,1.929688 v 13.283203 c 0,0.02474 -0.0069,0.04775 -0.0078,0.07227 4.151334,0.01567 8.05258,-0.843965 11.86914,-2 0.107207,-9.200558 0.04102,-16.407192 0.04102,-25.609375 0,-0.02362 -0.0174,-0.04102 -0.04102,-0.04102 h 0.04102 z"
       transform="scale(0.26458333)"
       sodipodi:nodetypes="cccscccssssscccccc" />
  </g>
</svg>
